<svg version="1.1" viewBox="0.0 0.0 960.0 720.0" fill="none" stroke="none" stroke-linecap="square" stroke-miterlimit="10" xmlns:xlink="http://www.w3.org/1999/xlink" xmlns="http://www.w3.org/2000/svg"><clipPath id="p.0"><path d="m0 0l960.0 0l0 720.0l-960.0 0l0 -720.0z" clip-rule="nonzero"/></clipPath><g clip-path="url(#p.0)"><path fill="#000000" fill-opacity="0.0" d="m0 0l960.0 0l0 720.0l-960.0 0z" fill-rule="evenodd"/><path fill="#f3f3f3" d="m120.0 360.0l0 0c0 -198.82251 161.17749 -360.0 360.0 -360.0l0 0c95.47797 0 187.04535 37.928463 254.55847 105.44156c67.51306 67.51309 105.44153 159.0805 105.44153 254.55844l0 0c0 198.82251 -161.17749 360.0 -360.0 360.0l0 0c-198.82251 0 -360.0 -161.17749 -360.0 -360.0zm21.931198 0l0 0c0 186.71027 151.35857 338.0688 338.0688 338.0688c186.71027 0 338.0688 -151.35852 338.0688 -338.0688l0 0c0 -186.71024 -151.35852 -338.0688 -338.0688 -338.0688l0 0c-186.71024 0 -338.0688 151.35857 -338.0688 338.0688z" fill-rule="evenodd"/></g></svg>